# xmcd
#
# Track frame offsets:
# 150
# 17834
# 32943
# 48560
# 66331
# 86039
# 101507
# 117378
# 134417
# 152181
# 168388
# 182243
# 197889
# 219749
#
# Disc length: 3222 seconds
#
#
# Revision: 3
# Processed by: cddbd v1.5.2PL0 Copyright (c) Steve Scherf et al.
# Submitted via: FreeRIP 2.945 
#
DISCID=d40c940e
DTITLE=George - Adrenalin
DYEAR=2006
DGENRE=
TTITLE0=Griff Nach De Stärne
TTITLE1=Wenn Scho Nid Für Immer
TTITLE2=Wär Wenn Nid Du
TTITLE3=Nie Wäg Vo Hie
TTITLE4=Rägetag Am Meer
TTITLE5=Immer No Glich
TTITLE6=Country Song
TTITLE7=Tag Für Tag
TTITLE8=Gueti Seel
TTITLE9=Adrenalin
TTITLE10=Vergässe
TTITLE11=Als Wärs Geschter Gsi
TTITLE12=Vom Gliche Bluet
TTITLE13=5 Vor Zähni
EXTD=
EXTT0=
EXTT1=
EXTT2=
EXTT3=
EXTT4=
EXTT5=
EXTT6=
EXTT7=
EXTT8=
EXTT9=
EXTT10=
EXTT11=
EXTT12=
EXTT13=
PLAYORDER=
